<svg width="86" height="86" viewBox="0 0 86 86" fill="none" xmlns="http://www.w3.org/2000/svg">
<path fill-rule="evenodd" clip-rule="evenodd" d="M85.8555 42.8555C85.8555 66.5239 66.6685 85.711 43 85.711C19.3316 85.711 0.144531 66.5239 0.144531 42.8555C0.144531 19.1871 19.3316 0 43 0C66.6685 0 85.8555 19.1871 85.8555 42.8555ZM54.7961 80.9365C71.0488 75.9077 82.8555 60.7604 82.8555 42.8555C82.8555 37.9865 81.9824 33.3213 80.3842 29.0082L75.0976 39.1077C74.0026 41.1998 71.4043 42.3967 69.2673 41.7867C67.9005 41.3965 67.0683 40.3688 66.9043 39.1489L59.5967 43.7152C57.0443 45.3101 53.9951 44.4901 53.3776 42.1403C49.8736 42.7464 47.7159 39.5577 49.8205 36.5441C47.9085 34.9211 48.6183 31.7923 51.145 30.2134L51.7722 29.8215C50.2573 28.1234 51.017 25.2946 53.3704 23.824L60.9928 19.0609C61.8834 18.5047 62.8228 18.0331 63.7933 17.6553L71.2586 14.7501C64.0402 7.49262 54.0448 3 43 3C32.1678 3 22.3449 7.32137 15.1613 14.3342C15.1952 14.3556 15.2286 14.3783 15.2616 14.4022L20.8824 18.486L23.2915 17.498C25.166 16.7266 27.4392 17.0528 29.2238 18.3494L33.6143 21.5393C35.0765 22.6016 36.0279 24.1682 36.2292 25.8436L36.6602 28.7099L39.424 30.7178C41.3893 32.1457 41.925 34.758 40.6247 36.5477L40.0353 37.3589C39.2397 38.454 37.9407 38.9898 36.6049 38.914C36.503 39.1378 36.3788 39.3518 36.2323 39.5535L35.7351 40.2379C35.142 41.0542 34.2858 41.6095 33.3037 41.8519C33.2053 42.0508 33.0909 42.2404 32.9613 42.4188L32.4629 43.1048C31.6342 44.2455 30.2796 44.8648 28.8444 44.8058C27.3047 46.7625 24.3397 47.025 22.1214 45.4133L14.8938 40.1622C12.581 38.4819 11.061 35.9909 10.663 33.3702L5.41659 29.5584C3.94522 33.7171 3.14453 38.1928 3.14453 42.8555C3.14453 59.9795 13.9438 74.5811 29.1034 80.2214C28.3368 79.2161 27.8913 77.9818 27.8693 76.7209L27.8138 73.5465C27.7824 71.7468 28.5592 70.0479 29.9464 68.8852L31.225 67.8178L27.872 59.2387C27.6556 58.6813 27.5478 58.1086 27.5379 57.5409C27.5025 55.5121 28.7209 53.5743 30.7201 52.793C33.8643 51.5463 36.4795 53.6051 37.2711 55.6573L37.3266 55.8014L37.3657 55.1175C37.5004 52.507 39.6967 50.4264 42.3376 50.3803C45.0894 50.3323 47.3738 52.5415 47.4218 55.2888C47.4238 55.4067 47.4217 55.5254 47.4153 55.645L47.0948 61.6531L47.6591 61.6432C49.1916 61.6165 50.6597 62.3041 51.6251 63.4703C54.3194 63.516 56.5208 65.6949 56.5678 68.3915L56.6833 75.0092C56.722 77.2221 56.0158 79.278 54.7961 80.9365ZM6.56581 26.6752C8.22986 22.9338 10.4533 19.4961 13.1299 16.4685C13.2282 16.6062 13.3494 16.7311 13.4935 16.8358L20.7155 22.0829C20.7546 22.0643 20.7902 22.0409 20.8258 22.0175L20.8258 22.0175L20.8258 22.0175C20.8675 21.9901 20.9091 21.9627 20.9563 21.9432L24.7533 20.3811C25.5963 20.03 26.6368 20.188 27.454 20.7818L31.8462 23.9728C32.5306 24.4701 32.9732 25.2007 33.0572 25.9759L33.286 27.4977L30.8287 25.7124C30.3394 25.3569 29.6739 25.4311 29.3498 25.8773C29.0256 26.3234 29.1582 26.9775 29.6499 27.3347L37.6559 33.1514C38.1467 33.508 38.2806 34.1621 37.956 34.6089L37.3667 35.4201C37.0425 35.8662 36.3787 35.9416 35.8878 35.585L34.9982 34.9387C34.4657 34.5518 33.8139 34.6934 33.5116 35.1096C33.2746 35.4356 33.2815 35.896 33.5344 36.2672C33.5762 36.3301 33.9947 37.0214 33.5637 37.6146L33.0653 38.3006C32.6551 38.8652 32.1874 38.8633 31.7488 38.8615C31.3615 38.8599 30.9968 38.8584 30.7144 39.2471C30.5713 39.4441 30.5519 39.6181 30.5316 39.8008C30.5091 40.0026 30.4855 40.215 30.2925 40.4806L29.7942 41.1666C29.2973 41.8504 28.6998 41.7523 28.1359 41.6596C27.6321 41.5769 27.155 41.4985 26.8006 41.9863C26.7949 41.9942 26.7892 42.0022 26.7839 42.0103L26.2411 42.7828C25.7733 43.4267 24.6845 43.5574 23.8895 42.9798L16.6619 37.7286C14.6521 36.2684 13.6389 34.0187 13.7771 31.9146L6.56581 26.6752ZM64.5617 20.2749C63.8219 20.5628 63.1021 20.9242 62.4224 21.3489L62.4225 21.349L54.8001 26.112C53.3546 27.0152 54.4088 28.78 55.9292 27.8299L60.3504 25.0673C60.8624 24.7474 61.4907 24.8294 61.7539 25.2506L61.9581 25.5774C62.2213 25.9986 62.0196 26.5994 61.5076 26.9193L52.5746 32.5012C51.0972 33.4244 52.1363 35.1986 53.6237 34.2692L62.5967 28.6623C63.1087 28.3423 63.7371 28.4244 64.0002 28.8456L64.2044 29.1724C64.4676 29.5935 64.2659 30.1943 63.754 30.5142L52.8439 37.3316C51.3664 38.2548 52.4061 40.0287 53.893 39.0996L64.8431 32.2572C65.3551 31.9373 65.9834 32.0194 66.2466 32.4405L66.4508 32.7673C66.714 33.1885 66.5123 33.7892 66.0003 34.1091L57.118 39.6594C55.6406 40.5826 56.6814 42.3559 58.1672 41.4275L70.1309 33.9517C71.0329 33.388 71.9969 34.1135 71.5333 34.9993L70.135 37.6708C69.3944 39.086 71.5758 39.6755 72.3201 38.2534L78.2576 26.9091L72.244 17.2853L64.5617 20.2749ZM51.5023 66.6546C52.4443 66.6382 53.2226 67.4128 53.2395 68.382L53.2409 68.382L53.3576 75.0672C53.42 78.645 50.6012 81.6052 47.0723 81.6668L39.5932 81.7974C38.5362 81.8158 37.4813 81.5646 36.5429 81.0718L32.6354 79.02C31.7648 78.5627 31.2138 77.659 31.1964 76.6608L31.1409 73.4864C31.1264 72.6551 31.4804 71.8783 32.1745 71.2849L33.4429 70.2258L35.1461 74.5774C35.3167 75.0153 35.7496 75.2828 36.2011 75.2749C36.7365 75.2655 37.2395 74.7808 37.2289 74.1753C37.2268 74.0528 37.203 73.9286 37.1553 73.8077L30.9852 58.0896C30.9069 57.8864 30.8678 57.6777 30.8642 57.472C30.8445 56.342 31.7707 55.7005 32.5429 55.6871C33.4232 55.6717 33.8987 56.3002 34.157 56.7994L37.9503 66.5918C38.1151 67.0193 38.5295 67.3016 38.9922 67.2936C39.9122 67.2775 40.0862 66.4466 40.0961 66.2657L40.6855 55.2226C40.732 54.3159 41.4444 53.5801 42.365 53.564C43.2972 53.5477 44.0762 54.319 44.0931 55.2868C44.0938 55.3273 43.5978 64.672 43.5978 64.672C43.5965 64.6969 43.5961 64.7217 43.5965 64.7463C43.6066 65.3253 44.092 65.8166 44.7216 65.8056C45.1623 65.7979 45.3828 65.5884 45.6159 65.3668C45.8775 65.1182 46.155 64.8544 46.7773 64.8436L47.7151 64.8272C48.4277 64.8148 49.0792 65.2759 49.3341 65.9739C49.4936 66.4151 50.0049 66.6835 50.4827 66.6751L51.5023 66.6546Z" fill="white"/>
</svg>
